ply
format ascii 1.0
element vertex 1000
property float x
property float y
property float z
property uchar red
property uchar green
property uchar blue
end_header
-0.532751 0.510768 0.404825 169 255 169
-0.447599 -0.699795 -0.216781 124 140 181
-0.503389 -0.462293 -0.108848 169 120 130
-0.478628 -0.702064 -0.085049 124 102 102
-0.694832 -0.436573 -0.428670 206 202 194
-0.038067 -0.622019 0.462635 216 158 198
-0.292045 0.750470 -0.077014 131 242 232
0.131456 0.206874 0.090553 127 195 200
0.142741 0.792265 0.410661 230 176 154
-0.840204 -0.954055 0.186389 255 192 134
-0.831716 0.928152 0.483303 108 137 157
-0.050330 0.818590 0.186795 253 102 138
-0.400900 0.381754 -0.277851 146 180 242
0.813957 0.582090 0.472638 230 175 189
-0.924671 -0.985899 0.428747 254 157 181
-0.080072 -0.502409 -0.270220 109 209 221
0.613823 -0.900863 -0.165306 122 230 172
0.907961 0.779517 -0.191647 129 174 174
-0.905963 0.046314 -0.382854 255 210 109
-0.433039 -0.013340 -0.015779 229 251 218
-0.373005 -0.590874 0.150483 169 235 204
-0.520470 -0.127867 0.337425 171 162 212
0.774021 0.914417 -0.305288 134 206 189
-0.637369 0.375049 0.056136 137 101 138
0.380410 0.515190 0.006227 255 214 196
-0.473007 0.681738 -0.422044 226 176 173
0.388724 0.812370 -0.065992 178 226 186
-0.444409 -0.781098 0.124606 176 194 148
-0.380615 -0.684335 -0.479778 192 124 237
0.056690 -0.463008 -0.268601 120 122 142
0.917794 0.387563 0.275117 137 254 109
-0.286510 0.994274 0.147697 157 131 150
0.400768 -0.078431 0.344367 106 221 110
0.242771 -0.455534 -0.461908 201 139 136
0.216135 0.185678 0.290049 120 126 232
0.867976 0.583950 0.395287 139 179 170
0.325411 -0.359959 -0.364997 149 219 214
0.094066 -0.249428 -0.264264 135 183 106
0.068199 0.301719 0.321524 225 183 123
-0.198574 0.106753 0.440499 194 162 177
-0.086360 -0.228588 -0.253552 192 206 143
0.115187 0.601332 0.125831 157 115 143
-0.143008 -0.582057 -0.171525 205 220 143
0.218167 -0.862845 0.382416 178 152 154
-0.354311 -0.504545 -0.415071 214 112 175
0.662790 0.065875 0.473126 181 181 117
-0.632205 0.659222 0.232229 252 204 221
-0.230933 -0.341480 0.102206 105 146 240
0.465244 -0.209489 -0.241556 171 157 197
0.677124 -0.657075 0.154328 206 126 202
0.292502 -0.817902 -0.290902 131 211 240
0.162209 -0.103644 -0.029440 231 202 127
-0.134434 0.286072 0.040143 195 126 218
-0.181203 0.245354 -0.222084 234 148 210
-0.672244 -0.469771 0.116444 102 100 221
-0.289107 0.920296 0.452022 242 183 112
0.702564 0.481175 0.081350 139 121 135
-0.667225 -0.081230 -0.356549 166 196 247
0.114174 0.624329 -0.343714 200 166 227
-0.702551 -0.943466 -0.249481 139 181 170
-0.316957 -0.044916 0.431238 190 180 153
-0.109539 -0.393385 0.139393 152 134 193
-0.048893 0.051306 0.027140 126 121 181
0.538449 -0.703567 0.242708 110 247 176
0.649764 -0.068866 -0.222569 249 211 221
-0.455826 0.075463 0.062027 237 174 199
-0.754463 0.158155 0.385268 116 150 212
-0.394688 -0.832608 -0.236890 240 241 174
-0.587245 0.932971 -0.264182 242 224 157
0.130114 0.564574 0.459221 230 110 134
0.571179 0.140833 -0.098015 230 162 191
0.844769 -0.093230 0.258360 132 252 230
0.009852 -0.814003 -0.014766 130 145 148
-0.700714 -0.048207 -0.221571 161 215 225
0.464610 -0.911211 -0.234365 172 152 121
-0.180930 0.237235 -0.061905 190 176 214
-0.742931 0.408503 0.075858 106 241 220
-0.225505 0.260814 -0.372576 165 248 254
-0.522546 -0.145524 0.164536 108 251 227
0.247389 -0.344544 -0.062894 204 253 216
0.385275 -0.779952 0.380539 250 165 112
0.779860 0.974114 0.342715 141 255 199
0.641520 -0.476563 -0.182091 122 185 115
-0.791971 -0.406900 0.117379 149 119 168
-0.950955 -0.551694 -0.033257 221 108 112
-0.837666 0.316891 0.426952 242 217 162
0.079210 0.633046 -0.018489 146 238 165
0.701979 -0.832951 -0.090631 172 162 170
0.572418 0.115250 -0.031467 208 137 170
-0.561161 0.742417 -0.089442 141 199 215
-0.791408 0.609088 -0.427177 242 176 224
-0.726540 0.468385 0.489001 160 136 168
0.074080 0.583893 0.023782 237 202 218
0.399160 0.882223 -0.411449 137 242 120
-0.523041 0.453892 0.335658 255 119 195
-0.085172 0.394071 -0.457886 118 126 234
-0.723867 -0.315946 0.092693 200 247 156
-0.527156 0.981625 0.359534 133 189 207
-0.984711 -0.427162 0.125827 206 220 131
-0.976403 -0.989093 0.161193 190 196 199
-0.847445 -0.466538 -0.169881 197 189 172
-0.256714 0.020965 -0.390518 104 178 113
0.396230 -0.422373 0.474822 121 165 231
0.174142 0.172534 -0.329639 124 212 212
-0.370927 0.070491 -0.076816 174 209 177
-0.542936 -0.838311 -0.115878 149 129 146
-0.612830 0.619303 -0.452957 228 109 217
0.210103 0.821039 0.488515 151 204 218
-0.767573 -0.792807 0.280794 103 250 201
0.742499 0.048840 -0.240615 195 196 167
0.928385 -0.628807 0.046637 249 244 227
-0.588940 0.518735 0.369678 143 183 103
-0.403880 0.365539 -0.046420 160 104 146
-0.777385 0.644728 0.309804 248 153 142
-0.547342 0.323605 -0.327410 225 250 110
0.825677 0.077826 0.241129 125 218 136
0.446981 -0.228988 -0.272605 211 151 176
-0.639698 -0.558220 -0.318117 130 164 238
0.880331 -0.014100 -0.109426 242 162 201
-0.717292 0.052789 0.322857 219 194 216
0.764374 -0.336213 0.258901 188 201 230
0.785615 -0.022837 0.468827 105 125 143
-0.985577 0.024729 -0.147083 241 167 181
0.855681 -0.305471 0.344506 196 160 149
-0.557925 0.530458 0.352763 237 196 142
0.661944 0.258186 0.422039 192 202 110
-0.134372 0.193941 0.096524 102 126 194
-0.587247 -0.027393 -0.037200 101 187 157
0.405765 0.373123 -0.080619 125 161 135
0.517176 0.726967 -0.341658 248 219 217
0.380622 0.812494 -0.094210 211 125 149
0.747903 -0.713066 0.293494 137 220 105
-0.987826 0.133524 0.215495 151 101 125
-0.464101 -0.395752 0.468910 238 235 140
-0.858756 -0.639464 -0.004555 251 139 233
0.579977 0.014414 0.055854 169 137 240
0.705471 -0.075712 0.467887 147 171 202
0.947775 -0.021240 -0.299329 177 147 220
-0.490976 -0.343905 0.250009 103 142 242
0.460235 0.689296 0.400499 197 221 160
-0.250483 0.084726 0.222125 170 181 172
-0.440510 -0.587934 -0.001679 161 195 252
-0.694753 0.398356 0.235083 112 215 110
0.407649 -0.207917 -0.431829 100 165 145
0.010251 0.134698 0.205277 184 155 251
-0.735738 -0.331928 0.133957 155 143 102
-0.542508 0.552585 -0.329179 138 199 200
0.997546 0.906601 -0.357529 143 116 226
0.259387 -0.907640 0.262894 247 191 235
0.872920 -0.086055 0.172906 149 116 154
-0.002099 0.501650 0.494424 127 178 198
-0.876279 -0.856725 -0.394866 241 240 195
0.450224 -0.582618 -0.232251 239 124 101
-0.084155 0.759892 0.475112 150 104 248
-0.294742 -0.929547 0.143584 240 204 202
0.819369 0.550555 0.355968 239 148 255
0.426622 -0.490850 -0.136459 202 215 121
0.696586 -0.899522 -0.226244 171 232 154
0.935268 0.077149 -0.474400 140 230 185
0.364181 0.159256 0.424739 118 192 252
-0.543570 -0.951953 0.396857 165 132 162
-0.419200 -0.544567 -0.477409 186 124 220
-0.407380 0.884289 0.069071 165 221 167
-0.684267 0.020021 0.062567 142 207 193
-0.695496 -0.202122 -0.164268 224 133 229
0.577815 -0.547182 0.260414 108 212 168
-0.290124 -0.378964 -0.260967 193 160 190
-0.683556 0.560007 -0.289757 242 226 154
-0.920266 -0.766114 -0.319050 101 255 230
0.100713 0.306911 0.315472 208 120 142
0.699610 0.227309 -0.130896 228 183 187
-0.142584 -0.770750 0.219603 115 143 196
-0.872130 -0.727810 -0.447460 138 137 236
0.931614 -0.516035 -0.358876 234 120 195
0.083575 0.844168 0.499119 210 190 116
0.079717 0.678113 -0.114119 200 132 108
-0.120202 -0.554863 0.443566 215 232 106
0.781124 -0.331516 0.337164 247 140 129
0.170606 -0.813390 -0.238821 230 138 152
-0.258230 -0.865706 0.213910 117 185 103
-0.117401 0.710879 0.328812 162 119 118
-0.430892 -0.237959 -0.125758 149 216 109
0.395961 0.293031 0.118315 198 100 219
-0.836472 -0.516218 0.370665 140 196 168
-0.234102 0.396125 0.136970 228 220 232
0.300952 -0.249209 -0.031361 175 241 195
0.636373 0.718051 0.200470 223 148 185
-0.431900 0.062638 0.139940 225 141 210
0.195583 -0.640848 0.101348 135 200 234
-0.239735 -0.359473 0.352607 186 142 166
-0.534095 -0.014974 0.388063 255 143 195
0.143431 -0.839341 0.364291 125 170 129
0.091417 0.436599 0.421825 154 104 220
0.597351 -0.292648 -0.368857 184 167 164
-0.118791 -0.574349 -0.039471 159 135 127
-0.484453 0.903666 -0.109840 140 208 173
-0.884931 0.282582 -0.113247 116 210 172
-0.321681 -0.218846 -0.166245 207 146 248
0.836772 0.752210 0.413096 162 189 141
-0.673454 -0.991372 -0.199931 246 247 231
0.138666 -0.278732 -0.414911 179 119 226
-0.172203 0.799716 -0.277860 168 242 181
0.020037 -0.845846 0.278832 201 223 183
0.467640 0.826882 0.074255 140 174 255
-0.904931 0.301765 -0.057153 102 236 191
-0.288102 0.459010 0.189741 229 213 201
0.061828 -0.625236 -0.186015 240 178 210
0.034349 0.023328 -0.344803 168 175 106
-0.699758 0.480025 -0.207121 211 197 103
-0.773532 -0.125093 0.279693 149 158 199
-0.736241 -0.599558 -0.134537 154 223 223
0.883623 0.055950 0.231332 106 242 160
0.840179 0.291478 -0.070889 141 147 246
-0.522791 -0.029477 -0.143517 227 207 115
0.164991 0.456380 -0.447602 166 223 122
0.372890 0.201401 0.485802 120 150 219
-0.205151 0.891734 -0.434117 160 187 220
-0.490034 -0.304497 -0.204804 101 128 157
0.317357 -0.619704 -0.471550 128 175 224
-0.246549 -0.319656 0.357544 129 176 153
0.716417 0.466268 -0.042728 205 234 139
-0.076930 0.165255 0.067440 133 253 218
-0.865757 -0.765653 -0.223399 166 247 155
-0.694428 -0.900141 -0.311118 249 140 113
-0.538071 0.060055 -0.075514 195 116 164
-0.321722 0.336212 -0.104325 223 205 229
-0.290129 -0.770269 -0.056458 242 190 246
0.316268 0.970055 -0.293024 223 124 149
0.741540 0.285281 -0.418032 181 132 242
-0.833457 -0.473147 0.374081 229 181 183
-0.592547 0.154733 0.446090 196 140 212
-0.663862 -0.905743 -0.139746 139 234 231
0.577472 0.694795 -0.299736 130 100 175
-0.672383 0.282256 -0.246143 244 106 136
0.163591 -0.209490 0.360102 186 186 113
-0.075572 0.096291 -0.000323 108 194 156
-0.029592 0.063661 -0.088509 179 242 228
-0.354113 -0.058740 -0.141809 161 228 110
-0.920632 0.848334 -0.014381 229 200 175
0.673306 -0.400300 0.209972 200 112 194
-0.630857 -0.909951 0.220213 147 186 178
-0.073011 -0.820897 0.238112 106 124 110
0.639503 -0.719381 -0.258426 250 192 173
-0.207084 -0.687075 -0.121941 119 115 110
-0.694214 0.443902 -0.333079 253 149 250
-0.866841 0.625852 -0.327566 189 124 120
-0.849514 0.010654 0.311466 174 164 228
0.722700 -0.388326 0.191326 255 205 141
0.486632 -0.044278 0.106828 143 239 221
0.730592 -0.176008 0.444979 169 100 232
-0.473927 0.238860 0.239008 240 162 240
-0.464451 -0.713175 -0.233937 250 193 178
-0.637858 -0.495910 0.266958 125 126 206
0.272253 0.109411 -0.003301 125 194 165
-0.419047 0.352847 -0.089834 216 170 229
-0.668320 0.129157 -0.164245 133 143 204
-0.139795 -0.890639 0.322351 127 120 143
0.500246 0.405209 0.260671 114 206 210
-0.339223 0.330380 -0.466630 122 119 223
-0.385583 0.580188 0.033170 147 235 105
-0.456113 0.295765 -0.289954 214 249 107
-0.895716 0.757632 -0.111893 149 180 194
-0.172906 0.416038 0.490763 103 154 160
-0.392956 0.760827 0.239595 253 183 195
-0.840691 0.733028 -0.300286 216 117 155
-0.045294 -0.047522 -0.123471 185 238 158
-0.925555 -0.822194 -0.311458 208 251 215
0.642525 -0.470067 0.100908 241 184 220
-0.581849 -0.417500 0.055831 101 133 225
0.806767 -0.302598 -0.235540 197 211 242
-0.965875 -0.944885 0.368052 235 210 236
-0.734999 0.647968 0.022399 126 219 188
0.555029 -0.315645 0.106750 132 105 150
0.897434 0.206802 0.280488 113 245 252
0.553686 0.315069 0.125844 133 104 153
-0.835412 -0.336849 0.410538 107 177 213
-0.637397 -0.374333 -0.450474 248 161 184
0.309374 0.859199 0.484844 150 126 215
0.564090 -0.204693 -0.461419 234 135 167
-0.434946 -0.717470 0.114540 252 145 104
-0.799548 -0.659553 -0.248037 179 183 103
-0.262508 0.598302 -0.045146 176 169 193
-0.305313 -0.353937 0.106323 143 132 113
-0.198717 0.138468 -0.386041 126 231 132
-0.732633 -0.985132 0.438136 121 185 102
0.070102 0.510849 -0.175893 199 172 224
-0.106566 0.479249 -0.136919 106 234 242
-0.129836 0.414546 0.309061 128 129 154
-0.038347 -0.152380 0.016361 248 162 110
-0.058570 -0.917234 0.495040 142 148 190
-0.741160 0.964722 0.274301 181 106 187
0.690811 0.812901 -0.456864 177 233 211
-0.297703 -0.254116 -0.093075 148 223 202
0.525836 -0.471931 -0.026450 238 251 168
0.713465 -0.771455 -0.070345 121 104 233
0.886892 0.561530 0.425297 128 255 106
-0.891887 0.207723 0.028493 238 120 129
0.542786 -0.169152 0.134765 130 242 235
0.786426 0.971469 -0.201973 255 231 255
-0.606509 -0.351425 -0.324550 139 179 155
0.082636 0.664794 -0.351639 230 165 175
-0.391794 0.144307 0.396023 143 135 142
0.114224 0.337419 0.092102 224 138 165
-0.762414 -0.509729 -0.347262 119 170 250
-0.985214 0.513877 0.235916 229 207 221
-0.839202 0.883345 -0.036653 135 196 188
-0.288969 0.961824 -0.240025 192 225 174
-0.635187 -0.705423 -0.312443 250 244 219
-0.737795 0.835664 0.486391 240 230 227
0.294334 0.119678 -0.470510 128 218 242
0.161836 0.716070 0.241798 187 121 179
-0.519968 -0.084602 0.382419 169 181 215
-0.759204 -0.519727 0.430893 123 161 242
0.958888 0.783546 -0.193310 113 206 242
0.533349 0.801858 -0.370941 216 117 134
-0.317877 0.491146 -0.197105 206 200 228
0.421267 0.483077 0.251830 106 221 143
0.557779 -0.981895 -0.283635 194 215 239
0.810567 0.929592 0.437355 248 183 129
-0.710615 0.052443 -0.394133 113 232 180
0.477997 0.359996 -0.208692 212 117 250
-0.630364 0.930703 -0.308629 223 199 114
0.339742 -0.086462 0.416598 197 186 125
-0.726376 -0.340308 -0.018843 147 255 113
-0.568599 0.633414 0.451991 232 137 255
0.066154 -0.216742 0.206007 107 178 213
0.069202 -0.381248 -0.313824 119 217 204
-0.331178 0.734963 -0.477304 117 172 106
-0.801752 -0.561223 -0.292675 231 229 115
0.722374 -0.518672 -0.472997 219 165 250
-0.296764 0.437788 0.133727 180 178 223
0.731522 -0.765851 0.185656 165 190 122
-0.318345 -0.601260 -0.206595 216 165 249
0.440885 0.364167 -0.422443 165 120 148
0.539523 -0.067414 0.328108 249 134 205
0.656020 -0.243146 0.462172 205 109 196
0.886995 0.399222 0.110598 186 126 130
0.819995 -0.308362 -0.022166 169 148 214
0.538020 -0.642802 -0.498972 252 133 136
-0.592124 -0.718934 -0.056748 110 134 193
-0.221907 -0.661105 -0.465716 122 149 106
-0.777895 -0.011035 -0.396058 140 150 133
-0.052670 0.886442 -0.352071 220 113 237
0.731686 -0.777848 -0.390613 180 110 235
-0.058826 -0.708625 -0.294554 154 249 140
0.280898 -0.955204 0.321997 118 175 194
-0.254193 -0.920863 0.066028 248 237 160
0.466908 0.957082 -0.088782 136 150 145
0.626151 0.688217 -0.404043 134 219 154
-0.862527 0.537939 0.169631 208 212 250
-0.719244 -0.432419 -0.473346 246 231 106
0.099567 -0.710548 0.380472 176 197 185
0.132839 0.206100 -0.196216 248 134 161
-0.932455 -0.965137 -0.236106 246 196 190
0.682164 0.401007 0.173437 156 248 117
-0.190348 -0.127059 0.184634 242 213 121
0.145574 -0.028340 0.222918 168 112 224
0.336836 -0.763927 -0.378710 132 192 214
-0.041548 -0.462425 -0.453212 162 205 110
0.092479 -0.903852 -0.192917 126 117 171
0.937428 -0.672574 -0.382874 226 197 199
-0.820635 0.596101 -0.498604 141 152 188
0.696407 -0.298849 0.393985 224 145 236
0.368120 0.617926 0.267963 125 149 172
-0.949478 -0.582934 0.297745 118 176 173
0.059818 -0.381990 -0.396301 109 169 219
-0.470721 0.773859 0.455554 232 124 136
0.388495 0.693805 0.361785 164 213 165
0.880502 0.968797 0.250056 233 112 127
-0.972718 -0.831311 -0.319529 106 103 239
0.738605 0.678145 -0.415885 123 207 204
0.680755 0.961458 -0.453898 165 156 104
0.570639 -0.961987 -0.415649 178 129 152
0.790897 0.459357 -0.195522 131 194 135
0.515106 -0.708197 0.149429 140 100 226
-0.785460 -0.822548 -0.192456 116 105 170
-0.079016 -0.530042 -0.183818 223 194 172
0.463812 0.870306 0.269464 147 230 189
-0.240800 -0.647947 -0.296838 137 186 246
-0.063586 -0.588328 -0.177544 102 253 102
0.667091 -0.289854 -0.445852 118 248 255
-0.313403 -0.966334 0.207687 143 125 225
-0.575974 -0.604671 0.108195 217 242 149
-0.417826 -0.570773 -0.104416 244 161 205
-0.598706 -0.010911 -0.309050 141 117 208
-0.292512 -0.737175 0.238893 128 175 185
-0.781875 0.219061 -0.446139 109 234 117
-0.011980 -0.434891 -0.415909 112 187 125
-0.041192 0.542267 0.459965 209 160 114
-0.644570 0.761507 0.005134 209 116 234
-0.811571 -0.860111 -0.030679 234 221 242
0.299417 0.961259 -0.396167 239 248 245
-0.808165 0.737373 0.162871 255 167 137
-0.582496 0.302050 -0.481430 247 230 193
0.183723 0.744344 -0.489551 136 236 143
-0.123556 -0.880211 -0.470297 149 212 180
0.392123 -0.127167 -0.454841 192 242 251
0.715390 -0.467241 0.241387 195 219 212
-0.825477 0.362355 0.247239 231 166 150
-0.353351 0.723405 0.388590 181 194 133
-0.611448 0.238448 -0.427015 161 179 115
-0.539222 -0.244321 0.376756 214 159 156
0.033710 0.959089 -0.210412 253 177 208
0.307039 -0.653673 0.489664 121 196 185
-0.047684 -0.507792 -0.415481 106 205 121
-0.922375 -0.459805 0.108863 187 133 147
-0.518004 0.681656 0.137156 237 205 133
-0.883507 0.461651 -0.448015 146 129 108
0.120513 -0.141887 -0.331410 118 249 134
-0.561014 -0.490340 -0.286671 148 165 129
-0.444899 0.765816 0.206914 186 196 116
0.035731 0.344938 0.218084 172 228 173
0.595715 -0.039047 -0.000733 197 108 223
-0.112823 -0.233484 -0.424615 143 110 202
0.836854 -0.007924 -0.321221 235 253 120
-0.091234 -0.313013 0.284765 220 251 157
0.506667 0.745292 -0.085620 133 210 154
0.170018 0.036750 -0.434131 192 133 181
0.475685 -0.785399 0.277097 185 169 202
0.194651 0.882587 -0.384699 190 205 150
0.777709 -0.764772 -0.104216 202 105 115
0.364672 0.523590 0.330843 251 211 132
0.362150 -0.132497 -0.080041 122 237 238
-0.884361 0.406915 -0.153567 209 230 202
0.298257 0.591708 0.499066 160 183 233
-0.442894 -0.906429 -0.238942 174 189 233
0.950899 -0.123159 -0.230545 171 235 194
0.137468 -0.053045 0.103698 183 157 190
-0.815407 -0.940663 -0.230708 109 199 146
0.229939 0.513238 0.082149 146 240 103
-0.878792 0.106389 -0.159545 103 131 132
0.404503 -0.603185 -0.333117 227 168 108
-0.116322 -0.462589 -0.237753 193 213 133
0.517116 0.995514 0.191043 110 225 186
0.653233 0.713848 0.013930 224 231 208
0.291516 -0.778183 -0.113149 160 232 181
-0.132353 0.567606 -0.402331 200 150 233
-0.890690 -0.110252 -0.110239 175 183 132
0.618721 -0.672246 -0.274756 178 186 147
0.608764 -0.724335 -0.265651 110 221 174
-0.598292 -0.111005 -0.437743 110 178 113
-0.174107 0.084440 -0.042749 236 165 149
0.287115 -0.632570 0.127769 196 152 122
0.281597 0.036117 -0.466556 156 115 217
-0.376945 -0.120509 -0.154785 246 106 150
0.239228 0.717149 0.446753 172 129 167
-0.074566 0.376599 -0.065245 168 118 158
0.374111 -0.849209 -0.395131 177 167 194
0.721501 0.096125 -0.191428 126 221 102
-0.511351 -0.164258 0.443983 228 195 133
-0.103675 0.734376 -0.032214 118 178 237
-0.810629 0.249015 -0.395042 194 221 172
-0.252331 -0.720218 0.421176 206 176 175
0.532525 -0.081874 -0.186502 208 106 143
-0.125753 0.672129 -0.366334 183 162 122
0.921851 0.474127 -0.171960 238 119 162
0.520511 -0.685582 0.035522 250 251 105
0.109993 0.573493 0.316822 107 248 226
0.428004 -0.029059 -0.146215 168 255 206
-0.222532 0.231915 0.345114 156 116 227
-0.343363 -0.303131 -0.250572 193 232 131
0.037162 -0.550191 -0.338820 133 102 147
-0.769433 -0.753743 0.184680 145 143 223
-0.253833 -0.040257 -0.376863 175 211 207
0.243320 -0.797421 0.403883 191 233 202
-0.842806 0.949820 0.480181 131 180 142
-0.814891 0.207739 0.408411 100 145 223
-0.671124 0.914520 0.062642 154 165 120
-0.557881 0.292026 0.209767 187 156 116
-0.736543 0.577676 -0.383260 205 128 251
0.955031 -0.641744 -0.315409 170 202 137
0.671045 -0.188908 0.156255 162 110 160
0.071124 0.732552 -0.494757 234 127 225
-0.301335 -0.209430 -0.254801 110 204 178
-0.882646 0.956501 0.252958 126 193 175
-0.617903 -0.196560 0.302052 173 154 108
-0.422011 -0.694900 0.259117 142 133 175
0.372039 0.759916 -0.295990 224 205 176
-0.140536 -0.116005 -0.304789 229 128 233
0.044556 -0.451328 0.117452 186 214 142
-0.090571 -0.181545 0.425244 164 118 230
0.868170 -0.979220 -0.292464 170 206 212
-0.839819 0.839453 0.178626 158 180 127
-0.964670 0.734098 -0.242590 221 213 153
0.812706 -0.526949 0.232966 140 118 122
-0.239438 -0.604136 -0.003891 245 179 196
0.211040 -0.104135 -0.155813 121 214 206
0.836207 -0.507270 -0.063793 108 130 110
0.303161 0.175306 0.305699 143 228 194
0.250254 0.306263 0.170204 214 117 169
-0.231038 -0.345148 0.000301 110 159 162
-0.318901 -0.431062 0.247104 161 234 242
-0.902836 0.141447 0.369812 240 223 216
-0.233172 -0.687170 0.430402 143 127 164
-0.505812 -0.579652 0.295218 244 178 105
-0.915232 0.783831 -0.040911 176 109 131
0.846771 0.682222 -0.468757 137 184 233
-0.762919 -0.123566 -0.016552 192 250 179
-0.343787 0.643827 0.046333 185 218 100
0.137864 -0.015002 0.479444 165 158 189
0.849633 0.453282 -0.484704 255 248 142
0.630503 -0.990160 0.493824 184 178 195
-0.818769 -0.228447 -0.363493 179 147 202
0.504386 -0.344389 0.322826 212 215 174
0.021853 -0.235064 0.181387 212 101 155
-0.924781 0.290372 0.361972 207 129 211
0.573371 0.382802 -0.453582 153 100 142
-0.087948 0.000221 0.447496 247 117 135
0.662909 -0.484550 0.318905 160 199 137
-0.799857 0.090451 -0.019753 105 179 226
0.562806 0.157882 0.089923 156 183 109
-0.908073 -0.685075 -0.406159 131 175 156
0.821434 0.545708 0.155430 234 119 202
0.819657 -0.121775 0.491651 241 236 128
0.281184 -0.278289 0.436677 200 245 115
0.077747 0.739440 0.248498 174 234 219
-0.350140 0.490984 -0.480517 255 254 218
0.893375 -0.043855 -0.156798 248 230 180
-0.525728 0.501107 -0.450799 191 229 215
-0.185554 -0.856706 0.385941 215 131 103
-0.941513 -0.217820 -0.001871 157 249 108
0.290544 0.111025 -0.221392 129 238 162
0.769709 -0.744364 0.246522 151 159 229
-0.988834 0.313683 0.076326 186 169 119
0.799699 0.811797 -0.054693 215 214 126
-0.836336 0.285544 -0.087776 122 241 251
-0.336695 -0.243454 -0.373328 165 181 224
0.562112 0.977937 -0.280067 235 252 236
-0.078917 -0.863845 0.154249 239 240 195
0.270373 -0.968929 0.277142 242 112 216
0.398769 0.511720 -0.190526 154 224 106
0.278280 0.191101 -0.117663 119 132 164
0.704216 -0.794917 0.077327 143 135 176
-0.714477 0.055625 -0.282751 238 242 109
-0.198121 0.812183 0.440956 103 249 226
0.960354 0.932899 0.172642 115 153 157
0.028834 0.945534 0.220806 137 251 195
0.373982 0.991548 -0.007482 151 120 227
0.251166 -0.360173 0.392063 194 123 191
0.598455 0.021283 -0.104673 152 180 145
-0.197910 0.286090 -0.051048 100 110 160
0.387146 0.336570 -0.455566 221 132 125
0.545377 0.459115 0.011338 202 141 143
0.087644 -0.022342 0.141258 198 180 188
0.606553 -0.321320 0.026087 252 217 126
0.639482 -0.479349 0.274494 194 141 122
0.506479 0.427698 0.248832 147 254 204
-0.437626 -0.524599 0.152387 255 145 249
0.906581 -0.399311 -0.031675 251 204 141
0.790678 -0.822498 0.049216 162 161 116
0.928785 -0.178166 -0.202895 165 186 219
-0.091571 -0.254404 -0.303525 227 251 171
0.883346 -0.897993 0.400301 198 220 124
0.686547 -0.524093 0.017512 223 168 155
-0.607179 -0.467520 0.010381 117 120 139
-0.295743 -0.856168 -0.330917 170 233 131
0.596943 0.206271 -0.460702 151 121 237
-0.879466 0.509768 -0.493846 134 162 201
0.350168 -0.065700 -0.069125 241 225 207
0.853621 -0.377919 0.251621 133 109 187
0.431817 0.770276 -0.313074 159 181 230
0.647205 0.516801 0.469182 184 216 131
0.322647 -0.569673 -0.348231 229 127 228
0.213661 0.918917 0.016052 188 240 188
0.232797 -0.326908 0.005833 116 237 157
-0.219377 -0.416995 0.079292 219 249 127
0.237789 -0.334258 0.124044 228 143 178
0.075065 0.751843 0.415257 228 217 123
-0.162308 0.610327 0.290789 128 151 184
0.126260 -0.102303 -0.144424 132 179 246
-0.708565 0.717160 0.345391 156 165 242
0.326708 0.996962 0.056592 234 200 194
-0.647310 0.240146 -0.098285 212 237 185
-0.913744 0.772355 -0.407798 194 160 154
-0.358022 -0.575428 -0.238589 164 221 135
0.331521 -0.531011 -0.104417 246 253 207
0.209473 -0.275006 0.427264 202 187 158
0.509660 -0.301355 0.457441 125 183 149
0.060263 0.016230 0.367781 180 224 121
0.783078 -0.631537 0.142511 183 133 146
0.276336 0.689617 0.229539 150 167 229
0.191909 -0.685636 -0.299131 143 215 164
0.355117 -0.908647 -0.435753 126 233 220
-0.295763 0.207429 -0.442713 158 210 228
0.229197 0.546438 -0.022602 191 185 149
-0.086691 0.287047 0.262911 210 213 194
-0.812351 0.261224 0.092897 117 240 240
-0.947376 -0.566321 0.175079 159 220 143
0.466487 -0.236183 0.200531 193 110 143
0.238761 0.559188 -0.136806 247 194 112
-0.910053 0.979537 0.020122 102 110 237
0.590232 0.593945 -0.042745 139 209 145
0.179494 0.687517 0.431629 128 229 101
0.330326 -0.544895 0.206466 109 205 197
-0.610225 0.670432 0.425572 225 133 189
-0.208123 0.914856 -0.303953 200 244 135
-0.503929 -0.317370 0.414379 240 132 162
0.651364 -0.126319 0.240995 166 219 102
0.930942 0.577441 0.276995 142 141 107
0.402168 0.218352 -0.454324 139 162 143
-0.217428 0.140260 -0.272724 221 253 229
-0.436682 -0.926484 0.444129 251 148 117
0.375369 -0.330456 0.356460 101 246 154
-0.521724 -0.352109 -0.061682 181 216 158
-0.919290 0.252556 -0.168302 101 209 156
0.752438 0.684711 0.391548 189 115 213
0.443593 0.121175 0.305878 168 230 167
-0.282283 -0.714113 0.392298 156 167 235
0.158657 0.298311 -0.266384 223 152 241
0.883611 -0.759995 -0.042916 109 109 255
-0.712877 0.206236 0.446446 174 136 245
-0.369386 0.366830 0.286271 215 175 171
-0.831850 -0.175583 0.259911 142 130 189
0.782504 -0.406006 0.118549 239 113 143
0.875196 0.868027 0.106405 170 255 102
-0.832830 -0.045934 0.489069 112 115 192
0.531400 0.618470 -0.112623 181 239 165
-0.277968 -0.097044 -0.003316 151 117 100
-0.479214 0.576751 -0.071510 166 242 169
0.453775 -0.446106 -0.084221 208 187 173
-0.190296 -0.259143 -0.342473 184 120 159
-0.525558 0.398589 0.238194 188 241 185
0.316887 0.932417 -0.499568 208 172 168
0.401826 0.897655 0.305454 178 123 152
0.056768 0.626658 0.203827 152 136 246
-0.495879 -0.228286 -0.185721 212 245 235
0.827630 -0.096703 -0.015982 217 249 151
0.096043 -0.762531 -0.461593 167 168 129
0.603214 -0.665833 -0.427539 184 216 117
-0.396977 -0.314144 0.097229 126 157 131
-0.307461 0.059318 0.212288 195 186 250
0.092119 0.969995 -0.420075 217 255 225
0.045644 0.542732 0.120087 123 177 143
0.971094 0.618580 0.212907 206 133 164
-0.989298 -0.071871 0.417304 189 235 184
0.622987 0.626927 -0.324946 191 136 223
-0.491757 0.942995 0.481607 146 176 190
0.980263 -0.212420 -0.014809 234 137 190
0.071165 -0.384491 0.272201 155 247 253
-0.851089 0.052806 -0.310022 248 142 255
-0.757780 0.554955 0.214175 105 168 149
0.967676 -0.825536 0.149138 228 118 168
-0.058894 0.798515 -0.371152 242 225 196
0.232498 -0.270192 -0.213770 226 181 211
0.900450 -0.425104 0.287845 166 239 140
-0.890033 0.367327 0.278381 107 162 196
-0.014355 -0.159055 -0.211839 215 133 128
0.744475 0.499909 0.433218 166 220 114
-0.451555 -0.320826 0.192824 142 167 169
-0.270972 -0.383033 0.071698 180 156 179
0.884269 -0.192376 -0.267283 251 168 113
0.049108 -0.548338 0.342082 179 142 232
-0.463918 0.246224 -0.477602 208 181 218
0.542467 -0.271751 -0.077156 202 103 133
0.704823 -0.457619 -0.433380 231 140 209
-0.631677 0.810483 -0.163701 217 212 150
0.804754 -0.180361 -0.311348 220 138 135
0.972141 0.149196 0.107277 214 127 129
0.874500 -0.456777 -0.404872 212 214 213
0.231780 -0.145579 -0.309020 227 235 187
0.187446 0.726985 -0.110012 249 249 254
0.277531 0.175088 0.303029 149 102 175
-0.039732 0.608613 -0.014477 143 119 190
0.699806 -0.542382 0.310863 201 112 249
-0.510686 0.508978 0.002789 167 156 225
0.284881 -0.526261 -0.487898 162 242 134
0.324006 -0.314902 -0.092749 195 120 125
0.511109 0.001918 0.337021 189 187 101
0.645910 0.739857 -0.401795 153 165 186
0.156290 0.786107 0.254748 251 212 184
0.704426 0.624071 0.380457 252 184 244
0.233227 0.607636 -0.494674 202 148 185
-0.983732 0.979837 -0.226479 157 122 234
-0.429539 0.658935 0.284537 221 103 204
-0.582789 0.041984 0.355857 189 153 202
0.422928 -0.761918 0.366306 204 204 126
-0.781459 0.647119 0.064253 196 155 143
0.622184 -0.416715 -0.068912 199 130 172
-0.889036 -0.410807 0.240552 231 118 150
0.728724 -0.865377 0.147274 210 171 150
-0.825818 -0.172994 -0.330339 143 130 137
0.027832 -0.536336 -0.376708 123 105 118
0.652714 0.752889 -0.163149 189 133 107
-0.268469 -0.223386 -0.224777 106 200 253
-0.041032 -0.628613 -0.251415 214 167 112
0.248984 0.348062 -0.353330 121 181 219
-0.725403 0.442595 0.079615 224 188 126
0.762281 -0.321399 -0.192410 221 251 137
-0.165392 0.763606 -0.021001 221 110 166
-0.194440 -0.243252 -0.448900 135 226 248
-0.679844 0.055937 0.372845 122 134 244
0.088498 0.313467 0.256780 213 155 132
0.233531 -0.526665 -0.076003 164 101 235
-0.045995 -0.528314 0.270589 152 121 123
0.889365 0.098412 0.075034 178 162 255
-0.699342 0.436306 -0.354450 251 173 242
0.026173 0.965736 -0.064969 228 232 226
0.590941 0.433001 0.023894 109 233 177
-0.504098 0.829647 -0.278969 192 126 122
-0.796761 -0.908195 -0.344466 106 160 122
-0.144875 -0.284245 0.301332 129 225 105
-0.745456 -0.420566 0.340812 161 150 188
0.694763 0.722628 0.294485 135 180 124
0.451382 0.525905 0.116815 240 136 131
0.823068 0.581409 -0.308488 175 234 147
0.662093 0.092052 0.030739 240 216 205
-0.715028 0.385477 -0.084116 176 236 102
0.901546 -0.268968 -0.389243 106 231 241
-0.104659 0.551872 0.400277 165 137 219
-0.742932 -0.546756 -0.124437 205 206 180
0.630313 0.701293 -0.052854 235 141 234
-0.646070 0.422954 0.016704 206 252 124
0.210593 0.242583 0.458800 176 139 143
-0.048579 0.084489 -0.307221 197 121 181
0.611764 0.029529 -0.197574 127 134 196
-0.315150 -0.773328 -0.430912 132 115 146
0.158702 0.355368 0.154675 254 176 206
-0.513043 -0.160762 0.034732 220 145 110
0.708427 0.270347 0.029445 218 198 249
0.719939 -0.998345 -0.054524 193 103 237
-0.154132 0.230619 0.481658 198 127 152
0.974849 0.794525 -0.456175 114 234 138
0.982290 0.476285 -0.129068 224 154 197
0.079957 0.894381 -0.400224 202 193 254
-0.427880 -0.305234 0.172488 226 190 239
-0.922135 0.712576 -0.033760 223 133 133
-0.509820 0.980241 0.440816 165 179 162
0.939507 0.972087 0.257601 205 204 250
-0.965651 0.475551 -0.236300 202 187 119
0.012262 0.917521 -0.024253 230 183 120
0.123767 -0.968578 -0.328669 107 230 192
0.877642 0.426006 -0.212486 195 188 179
0.564992 0.352171 -0.297263 238 166 134
-0.862191 0.617556 -0.254790 133 188 153
-0.313468 -0.130549 -0.268423 112 250 208
0.436222 0.829734 -0.413082 181 187 216
0.174586 0.697975 -0.288884 255 105 190
0.847659 0.471940 -0.024756 185 178 104
-0.984656 0.885045 0.131276 181 133 254
0.728363 -0.998265 0.073194 103 196 201
0.722205 -0.859344 -0.063202 141 201 181
-0.858061 0.895544 0.233807 147 219 225
-0.216172 -0.918178 -0.400771 213 155 167
-0.656872 0.927879 -0.492380 147 194 221
0.859436 0.619169 -0.253707 135 223 255
0.817594 0.616640 -0.295705 151 225 103
0.429464 -0.172204 -0.477146 145 190 172
-0.002678 0.673734 -0.310893 162 219 248
-0.360315 0.986630 -0.214709 228 150 227
-0.584622 -0.211534 -0.158520 248 106 250
0.280113 -0.109555 -0.450165 180 248 210
0.209316 0.320462 -0.460189 125 253 244
0.619542 0.580231 0.384586 126 119 123
0.609311 -0.255315 -0.324212 127 160 110
-0.353887 0.510000 -0.063018 251 212 152
-0.492658 0.852611 0.480040 233 137 134
0.330996 0.980050 0.204400 110 114 183
0.846183 0.806407 -0.473973 178 247 216
0.461103 0.992112 0.026624 229 193 139
0.162458 0.795834 0.412860 188 214 146
0.953854 -0.603820 0.463784 129 241 197
-0.534094 -0.670443 0.232493 210 174 112
0.706942 -0.879730 0.306323 241 225 134
-0.736300 0.110545 -0.138316 238 143 124
-0.813352 -0.355187 0.388062 140 231 147
-0.415848 -0.889747 0.194586 165 120 141
0.502602 0.104324 -0.439480 120 238 100
-0.979202 -0.936504 -0.105872 137 164 224
0.902670 -0.882720 0.204133 113 159 122
-0.163485 -0.437525 0.493980 221 229 176
0.712918 -0.954354 -0.120462 223 236 220
-0.410322 -0.951566 0.329799 173 131 139
0.844246 -0.365443 0.429223 151 178 191
-0.865367 -0.027399 -0.325435 239 134 210
0.338729 -0.202404 0.080148 165 148 134
-0.212136 -0.691172 0.467931 249 110 121
-0.793604 0.865530 0.144113 212 108 207
0.145944 -0.343542 0.083332 113 138 248
0.478092 -0.853953 0.227365 171 140 115
-0.475285 0.362842 -0.141758 168 179 142
0.087319 0.776259 -0.243008 253 133 107
0.050322 0.730427 -0.195956 140 253 103
0.012975 0.907042 0.292284 224 233 179
-0.166744 0.891849 0.316347 124 110 125
0.631251 -0.470133 -0.146368 231 123 199
0.356782 -0.568085 0.410249 135 160 247
-0.038103 -0.603283 0.195890 167 210 248
-0.692924 -0.858514 -0.396215 145 120 252
0.934213 -0.361296 0.472361 145 129 103
-0.209158 0.524250 0.438484 110 165 215
0.658165 -0.162100 -0.410917 215 229 155
0.169083 -0.057232 0.309029 150 131 122
-0.303322 -0.466020 0.305453 196 129 181
-0.270965 -0.764642 0.050951 235 131 127
0.848776 -0.304848 0.426808 133 154 121
0.457899 0.409113 0.341289 239 215 224
-0.123577 -0.379681 0.309435 114 233 124
0.758551 -0.320643 -0.280296 115 181 130
-0.988287 -0.978001 -0.344669 226 189 123
0.167461 0.520956 -0.132009 246 162 110
0.374978 -0.171611 0.423732 154 116 246
-0.041529 0.053982 -0.196872 110 123 136
-0.931527 -0.592351 -0.412640 255 198 147
0.501574 -0.689539 -0.081755 230 194 105
0.893256 0.583462 0.341073 199 154 236
0.194395 -0.524039 -0.387005 139 248 105
0.678020 0.423236 -0.105147 242 248 249
0.012675 0.319781 -0.060078 187 231 226
0.862328 0.351877 0.282037 250 228 108
0.496551 -0.923128 0.377418 168 174 143
0.322662 -0.427731 0.447641 145 117 216
-0.343237 -0.233704 -0.087927 125 117 150
0.068914 0.712492 0.008891 190 196 127
-0.982755 -0.471877 0.147524 100 181 105
0.890404 0.276443 -0.008197 193 173 195
-0.727562 0.918165 0.250069 242 195 221
-0.617720 0.199458 0.468862 146 159 242
-0.746561 0.209151 -0.443634 136 228 234
0.100769 0.999246 0.432347 105 241 171
-0.884048 0.571339 -0.472212 139 174 107
0.014014 0.944507 0.452066 191 140 241
0.323072 0.507076 0.083817 180 127 208
0.138153 -0.039251 -0.110336 110 229 183
0.776420 -0.140661 -0.314512 124 132 205
0.428084 -0.317099 -0.472590 179 225 153
-0.965952 -0.486092 0.250405 123 113 183
-0.605897 -0.192702 -0.431394 110 250 227
0.911225 0.060898 0.273758 136 255 238
0.013259 -0.369374 -0.187322 154 105 179
-0.680988 -0.500204 0.228821 149 219 143
0.268886 -0.604530 -0.256707 152 235 195
-0.753594 0.610105 -0.188542 105 161 138
-0.964278 -0.977007 -0.209722 153 234 151
-0.486014 -0.489315 0.296845 244 232 221
-0.579457 -0.304030 0.270686 171 218 219
0.796609 -0.510834 -0.411245 150 193 172
-0.321938 -0.153959 0.446677 184 125 166
0.945861 0.176642 0.419574 156 235 196
0.881178 0.423901 -0.236586 179 233 217
0.700504 -0.802777 -0.291276 185 118 244
0.554080 -0.342557 -0.139578 224 137 131
-0.435703 -0.893497 -0.398499 102 225 165
0.459451 -0.745239 -0.002306 199 155 211
0.422308 -0.264348 -0.242139 149 162 246
0.787508 -0.594411 0.489034 174 184 108
-0.935018 -0.072410 0.388277 143 238 248
0.906074 0.153686 0.469045 135 106 209
0.426395 0.228138 0.282924 162 159 126
-0.302360 0.530977 -0.325993 205 154 141
-0.023194 -0.351037 -0.394189 114 183 132
-0.629178 0.190643 0.025209 252 249 237
0.089813 0.237531 0.366430 181 232 162
-0.192095 -0.135830 -0.229403 168 186 187
0.369376 -0.511050 0.262687 197 104 130
0.008123 0.930071 0.058584 124 135 136
0.263174 0.105286 -0.418065 212 149 146
-0.308820 -0.517752 -0.074029 109 165 148
0.675415 -0.378018 -0.195529 129 228 210
0.884351 -0.447099 0.220099 255 124 217
0.780362 -0.553383 -0.233537 184 175 213
-0.990707 0.867567 0.485255 180 124 206
-0.095510 -0.145846 -0.233902 240 106 160
0.234048 -0.496886 0.150971 118 159 107
-0.068649 -0.195873 0.002493 148 141 176
0.523743 -0.485693 -0.241563 158 107 167
-0.235541 0.452724 -0.399157 202 123 231
-0.540463 -0.929564 0.472680 205 242 208
0.410797 0.955912 -0.274816 217 190 140
-0.288891 -0.042756 0.000734 201 171 239
0.291189 0.435134 -0.395338 246 224 235
0.432431 0.672415 -0.071443 159 199 183
0.685324 0.630960 0.443765 103 153 133
-0.659768 0.637853 0.294561 132 244 143
-0.219939 -0.007895 -0.028025 181 237 117
-0.542043 0.960221 0.070182 118 108 197
-0.074736 0.823615 -0.135439 239 154 115
-0.219775 -0.166561 -0.352609 167 106 160
0.636822 -0.199784 0.081267 214 136 193
-0.089352 -0.484616 0.125724 104 241 198
0.733945 -0.681246 -0.331603 117 119 234
0.775224 0.514838 0.147277 242 199 186
-0.083069 0.631344 -0.194361 136 123 113
0.891350 -0.260009 -0.243438 100 172 214
-0.245418 0.544616 -0.111719 155 239 103
-0.493186 -0.298207 -0.395575 254 253 118
-0.658557 -0.513183 0.264452 133 110 115
-0.917385 -0.374410 -0.137854 136 189 169
-0.414890 -0.160976 -0.144677 251 167 198
-0.620797 0.507545 0.130941 219 156 191
-0.004259 -0.427219 -0.177736 108 108 187
0.687872 0.877270 -0.086901 149 239 143
-0.943955 -0.986899 0.333913 147 100 181
0.569292 -0.961485 -0.219980 107 194 192
-0.646448 -0.171398 0.395761 135 186 239
-0.636371 0.774669 -0.462798 170 104 204
0.141403 -0.191501 -0.250964 178 101 207
0.457146 -0.725856 -0.084523 221 139 105
-0.237404 -0.290226 -0.235554 241 181 217
-0.291692 -0.895643 0.479342 179 123 212
0.698891 -0.468431 -0.358631 167 234 162
0.978265 0.524777 -0.039341 113 104 172
0.854385 0.077048 -0.488112 110 164 188
0.153593 -0.366370 -0.321287 206 186 254
0.713588 -0.066591 -0.472689 124 244 237
0.293447 -0.051738 -0.336639 159 183 224
-0.935811 0.908036 -0.436492 154 238 142
-0.474452 -0.331862 0.468677 164 139 214
0.269966 0.104401 0.042963 197 142 186
0.678455 -0.839014 -0.482284 185 104 215
-0.177488 0.546929 0.490772 104 208 201
-0.667275 -0.780369 -0.020709 143 204 251
-0.046320 -0.060076 -0.357007 192 228 147
0.364205 -0.961933 0.163183 220 183 112
0.494575 0.042872 0.367979 235 120 137
0.757764 0.898851 0.475488 157 136 102
-0.033127 0.978501 -0.310288 242 178 151
-0.241425 -0.121683 -0.166434 123 157 102
0.486029 0.941014 -0.455694 200 202 123
0.812603 0.562152 -0.390311 122 176 108
0.992828 0.982376 0.226337 227 186 107
-0.538875 0.522785 -0.384385 218 147 136
0.004379 0.786006 0.287979 155 226 213
0.553331 0.217272 -0.498382 167 175 164
0.590494 0.554716 -0.379555 194 149 217
0.447577 -0.352568 -0.166241 108 170 210
0.382845 0.103380 -0.381601 198 237 121
-0.643269 -0.321479 0.482331 126 252 248
0.035901 -0.455443 0.170445 202 242 112
-0.940607 0.110852 0.098621 190 155 175
0.371311 -0.141477 0.328810 156 211 213
0.922538 0.992716 -0.281988 223 214 194
0.526170 0.741355 0.081833 244 211 170
-0.079588 0.321312 0.283089 120 217 169
0.846358 0.050011 0.496121 215 213 248
0.726246 -0.726735 0.409302 255 114 128
0.810816 0.859877 -0.483745 235 235 204
-0.144977 0.490226 -0.211038 126 191 195
0.793042 -0.351874 0.180995 193 244 129
-0.444636 0.865960 -0.275496 180 183 227
0.682671 0.898994 0.292054 221 225 109
-0.336530 0.420249 0.458797 180 124 120
0.914778 0.164548 -0.289581 202 233 126
-0.398636 0.671323 0.470650 159 219 240
-0.797986 -0.449925 0.447211 247 136 253
0.140084 0.426957 -0.182318 242 146 147
-0.342095 0.354131 0.358548 213 200 194
0.201127 0.335049 0.493867 245 143 215
-0.582691 0.559024 -0.433914 170 249 224
0.616134 0.516404 -0.025429 204 250 206
-0.172155 -0.612675 -0.400461 109 234 128
-0.103963 0.239855 -0.135752 239 120 110
0.989267 0.447396 0.126989 172 231 202
0.865992 0.152500 -0.339222 136 211 242
-0.543207 0.364579 0.341926 216 158 181
-0.632678 -0.500227 0.217873 167 200 158
-0.540427 -0.508594 0.226854 173 176 167
0.782168 -0.380012 -0.360938 193 136 154
-0.802853 -0.180672 0.453930 236 202 100
0.910700 0.121144 -0.196247 106 143 120
-0.908861 0.417792 0.444692 153 218 116
0.139919 -0.517979 -0.263816 245 102 186
0.257086 0.452547 0.388061 202 216 189
0.883397 0.865220 0.318371 119 237 150
0.999973 -0.384253 0.169831 104 236 146
0.005671 0.459382 -0.200629 173 190 119
0.298433 -0.910559 0.032944 245 196 249
0.666270 -0.109893 -0.457471 183 181 148
0.649719 0.144390 -0.165926 226 214 198
0.961022 0.545277 -0.090030 145 199 159
-0.321075 -0.365577 -0.161185 200 112 212
-0.455822 0.339920 0.056225 100 169 247
0.344573 0.551850 -0.011910 119 108 105
0.287716 0.624725 -0.413514 186 205 154
-0.408395 0.918751 -0.260774 109 104 103
-0.402285 0.294939 -0.234326 145 192 152
0.897959 0.761374 0.404309 108 235 194
-0.251946 0.559836 0.059939 220 108 114
-0.530260 -0.981482 -0.261516 125 194 143
0.191452 0.502734 0.386741 141 179 250
0.820333 -0.257448 0.087435 171 204 147
-0.982438 0.903927 0.182782 235 202 183
0.586438 0.684552 -0.066250 244 244 211
0.688119 0.716503 0.166967 161 165 116
-0.896062 -0.761043 -0.449028 109 152 202
0.550363 -0.922608 -0.429822 246 165 238
-0.024752 -0.069733 -0.097247 216 244 194
-0.017861 0.028734 0.443687 238 235 206
0.748099 0.797073 -0.017278 162 133 156
-0.597431 0.686652 0.286755 221 102 162
0.743496 0.379860 0.076589 226 213 210
-0.571225 0.409712 -0.392361 211 212 108
-0.995023 0.297982 -0.388761 215 254 248
0.014691 0.355223 -0.435275 191 204 223
0.736030 0.775247 -0.216113 139 240 132
-0.694356 -0.096712 -0.085604 201 213 187
-0.745517 -0.000341 -0.361623 137 172 212
0.090588 0.875972 0.221160 228 245 251
-0.519348 -0.885843 0.136963 202 228 129
0.375424 -0.715652 -0.361750 116 232 215
-0.295779 -0.142994 -0.260162 242 251 234
